<svg width="146.016" height="11.492" viewBox="0 0 146.016 11.492" xmlns="http://www.w3.org/2000/svg"><g id="svgGroup" stroke-linecap="round" fill-rule="evenodd" font-size="9pt" stroke="#b2b2b2" stroke-width="0.45" fill="#b0b0b0" style="stroke:#b2b2b2;stroke-width:0.45;fill:#b0b0b0" class=""><path d="M 85.644 9.542 L 85.254 9.542 L 85.254 2.652 L 85.735 2.652 L 88.569 9.087 L 91.39 2.652 L 91.871 2.652 L 91.871 9.542 L 91.481 9.542 L 91.481 3.406 L 88.777 9.542 L 88.348 9.542 L 85.644 3.406 L 85.644 9.542 Z M 0.416 9.542 L 0 9.542 L 0 0.312 L 5.512 0.312 L 5.512 9.542 L 5.096 9.542 L 5.096 0.702 L 0.416 0.702 L 0.416 9.542 Z M 8.658 9.542 L 8.125 9.542 L 8.125 2.652 L 8.515 2.652 L 8.515 9.061 L 12.415 2.652 L 12.987 2.652 L 12.987 9.542 L 12.597 9.542 L 12.597 3.081 L 8.658 9.542 Z M 32.058 9.542 L 31.525 9.542 L 31.525 2.652 L 31.915 2.652 L 31.915 9.061 L 35.815 2.652 L 36.387 2.652 L 36.387 9.542 L 35.997 9.542 L 35.997 3.081 L 32.058 9.542 Z M 55.458 9.542 L 54.925 9.542 L 54.925 2.652 L 55.315 2.652 L 55.315 9.061 L 59.215 2.652 L 59.787 2.652 L 59.787 9.542 L 59.397 9.542 L 59.397 3.081 L 55.458 9.542 Z M 69.576 9.542 L 69.446 9.542 L 69.446 9.152 L 69.576 9.152 A 1.111 1.111 0 0 0 70.35 8.84 A 1.644 1.644 0 0 0 70.519 8.658 Q 70.865 8.226 70.988 7.535 A 3.96 3.96 0 0 0 71.019 7.332 L 71.643 2.652 L 75.335 2.652 L 75.335 9.542 L 74.945 9.542 L 74.945 3.042 L 72.007 3.042 L 71.396 7.436 A 3.821 3.821 0 0 1 71.248 8.106 Q 71.126 8.485 70.926 8.777 A 2.136 2.136 0 0 1 70.772 8.976 Q 70.278 9.542 69.576 9.542 Z M 134.381 5.954 L 137.072 5.434 A 5.706 5.706 0 0 0 137.034 4.751 Q 136.947 4.027 136.657 3.604 A 1.477 1.477 0 0 0 136.565 3.484 A 1.614 1.614 0 0 0 135.74 2.972 Q 135.428 2.886 135.044 2.886 Q 134.108 2.886 133.543 3.367 A 1.972 1.972 0 0 0 132.973 4.195 A 2.804 2.804 0 0 0 132.834 4.732 L 132.405 4.693 A 3.286 3.286 0 0 1 132.623 3.944 A 2.353 2.353 0 0 1 133.263 3.068 A 2.334 2.334 0 0 1 134.246 2.583 Q 134.589 2.501 134.99 2.496 A 4.206 4.206 0 0 1 135.044 2.496 A 3.109 3.109 0 0 1 135.775 2.577 A 2.045 2.045 0 0 1 136.832 3.185 A 2.12 2.12 0 0 1 137.257 3.914 Q 137.372 4.237 137.423 4.637 A 5.335 5.335 0 0 1 137.462 5.304 L 137.462 8.216 A 3.325 3.325 0 0 0 137.469 8.448 Q 137.496 8.828 137.618 8.97 Q 137.763 9.139 138.041 9.151 A 1.013 1.013 0 0 0 138.086 9.152 L 138.476 9.152 L 138.476 9.542 Q 138.428 9.554 138.301 9.561 A 3.6 3.6 0 0 1 138.281 9.562 Q 138.183 9.566 138.103 9.567 A 3.945 3.945 0 0 1 138.034 9.568 A 1.25 1.25 0 0 1 137.779 9.543 A 0.91 0.91 0 0 1 137.501 9.438 A 0.631 0.631 0 0 1 137.314 9.265 Q 137.224 9.144 137.163 8.964 Q 137.046 8.619 137.046 7.956 L 137.15 7.956 A 2.297 2.297 0 0 1 136.825 8.57 A 2.856 2.856 0 0 1 136.623 8.814 A 2.682 2.682 0 0 1 135.846 9.395 A 3.126 3.126 0 0 1 135.713 9.457 A 2.77 2.77 0 0 1 134.907 9.675 A 3.471 3.471 0 0 1 134.498 9.698 A 3.276 3.276 0 0 1 133.912 9.648 A 2.448 2.448 0 0 1 133.335 9.471 A 1.93 1.93 0 0 1 132.855 9.165 A 1.664 1.664 0 0 1 132.561 8.827 A 1.664 1.664 0 0 1 132.301 8.09 A 2.113 2.113 0 0 1 132.288 7.852 A 1.66 1.66 0 0 1 132.405 7.218 A 1.536 1.536 0 0 1 132.88 6.598 Q 133.471 6.123 134.381 5.954 Z M 29.146 6.006 L 29.146 6.162 L 23.712 6.162 A 5.018 5.018 0 0 0 23.81 7.091 Q 23.979 7.908 24.44 8.463 A 2.253 2.253 0 0 0 26.075 9.301 A 2.939 2.939 0 0 0 26.286 9.308 A 3.062 3.062 0 0 0 26.93 9.244 Q 27.364 9.151 27.695 8.921 A 1.898 1.898 0 0 0 27.788 8.853 Q 28.366 8.398 28.574 7.657 L 29.003 7.683 Q 28.756 8.554 28.048 9.126 Q 27.339 9.698 26.286 9.698 A 3.266 3.266 0 0 1 25.524 9.613 A 2.408 2.408 0 0 1 24.635 9.204 A 3.016 3.016 0 0 1 23.689 8.017 A 3.616 3.616 0 0 1 23.634 7.891 Q 23.296 7.072 23.296 6.097 A 5.106 5.106 0 0 1 23.429 4.912 A 4.425 4.425 0 0 1 23.621 4.303 A 3.108 3.108 0 0 1 24.173 3.387 A 2.861 2.861 0 0 1 24.602 2.99 A 2.419 2.419 0 0 1 25.642 2.547 A 3.317 3.317 0 0 1 26.234 2.496 A 3.3 3.3 0 0 1 26.953 2.57 A 2.33 2.33 0 0 1 27.866 2.984 A 2.919 2.919 0 0 1 28.786 4.172 A 3.485 3.485 0 0 1 28.828 4.271 A 4.549 4.549 0 0 1 29.138 5.716 A 5.322 5.322 0 0 1 29.146 6.006 Z M 126.776 9.542 L 124.956 9.542 L 124.956 0.312 L 126.776 0.312 A 5.055 5.055 0 0 1 127.811 0.413 A 3.665 3.665 0 0 1 128.966 0.858 A 3.479 3.479 0 0 1 130.255 2.244 A 4.274 4.274 0 0 1 130.351 2.438 Q 130.832 3.471 130.832 4.94 Q 130.832 6.218 130.468 7.162 A 4.278 4.278 0 0 1 130.351 7.436 A 3.703 3.703 0 0 1 129.642 8.472 A 3.354 3.354 0 0 1 128.967 9.003 Q 128.063 9.542 126.776 9.542 Z M 111.956 9.75 Q 111.033 9.75 110.325 9.133 Q 109.616 8.515 109.226 7.43 A 6.439 6.439 0 0 1 108.913 6.127 A 8.713 8.713 0 0 1 108.836 4.94 A 8.79 8.79 0 0 1 108.922 3.683 A 6.466 6.466 0 0 1 109.226 2.431 Q 109.612 1.349 110.312 0.733 A 3.114 3.114 0 0 1 110.325 0.722 Q 111.033 0.104 111.956 0.104 Q 112.892 0.104 113.594 0.722 A 3.493 3.493 0 0 1 114.285 1.566 Q 114.515 1.953 114.686 2.431 A 6.494 6.494 0 0 1 114.996 3.723 A 8.836 8.836 0 0 1 115.076 4.94 Q 115.076 6.344 114.686 7.43 A 4.92 4.92 0 0 1 114.293 8.276 A 3.516 3.516 0 0 1 113.594 9.133 Q 112.892 9.75 111.956 9.75 Z M 119.756 9.75 Q 118.833 9.75 118.125 9.133 Q 117.416 8.515 117.026 7.43 A 6.439 6.439 0 0 1 116.713 6.127 A 8.713 8.713 0 0 1 116.636 4.94 A 8.79 8.79 0 0 1 116.722 3.683 A 6.466 6.466 0 0 1 117.026 2.431 Q 117.412 1.349 118.112 0.733 A 3.114 3.114 0 0 1 118.125 0.722 Q 118.833 0.104 119.756 0.104 Q 120.692 0.104 121.394 0.722 A 3.493 3.493 0 0 1 122.085 1.566 Q 122.315 1.953 122.486 2.431 A 6.494 6.494 0 0 1 122.796 3.723 A 8.836 8.836 0 0 1 122.876 4.94 Q 122.876 6.344 122.486 7.43 A 4.92 4.92 0 0 1 122.093 8.276 A 3.516 3.516 0 0 1 121.394 9.133 Q 120.692 9.75 119.756 9.75 Z M 18.551 9.542 L 18.161 9.542 L 18.161 3.042 L 15.574 3.042 L 15.574 2.652 L 21.138 2.652 L 21.138 3.042 L 18.551 3.042 L 18.551 9.542 Z M 125.372 0.702 L 125.372 9.152 L 126.724 9.152 A 4.601 4.601 0 0 0 127.831 9.027 A 3.055 3.055 0 0 0 129.441 8.067 A 3.517 3.517 0 0 0 130.134 6.803 Q 130.39 6 130.39 4.94 A 7.099 7.099 0 0 0 130.297 3.75 Q 130.186 3.1 129.944 2.583 A 3.33 3.33 0 0 0 129.434 1.794 A 3.107 3.107 0 0 0 127.672 0.793 A 4.671 4.671 0 0 0 126.724 0.702 L 125.372 0.702 Z M 143.546 9.542 L 143.156 9.542 L 143.156 1.69 Q 143.156 1.33 143.018 1.094 A 0.781 0.781 0 0 0 142.896 0.936 A 0.834 0.834 0 0 0 142.542 0.729 Q 142.41 0.689 142.251 0.679 A 1.733 1.733 0 0 0 142.142 0.676 L 140.556 0.676 L 140.556 0.312 L 142.116 0.312 A 1.849 1.849 0 0 1 142.556 0.362 A 1.263 1.263 0 0 1 143.163 0.696 A 1.272 1.272 0 0 1 143.505 1.337 A 1.881 1.881 0 0 1 143.546 1.742 L 143.546 9.542 Z M 104.546 9.542 L 104.13 9.542 L 104.13 2.21 L 102.037 2.21 L 102.037 1.872 L 102.856 1.872 A 3.395 3.395 0 0 0 103.158 1.859 Q 103.302 1.847 103.423 1.82 A 1.367 1.367 0 0 0 103.642 1.755 Q 103.935 1.638 104.072 1.3 Q 104.195 0.995 104.207 0.435 A 5.771 5.771 0 0 0 104.208 0.312 L 104.546 0.312 L 104.546 9.542 Z M 111.956 9.334 Q 112.762 9.334 113.36 8.775 Q 113.913 8.258 114.243 7.37 A 5.513 5.513 0 0 0 114.296 7.222 A 6.139 6.139 0 0 0 114.56 6.082 A 8.374 8.374 0 0 0 114.634 4.94 A 8.495 8.495 0 0 0 114.56 3.79 Q 114.476 3.174 114.296 2.646 Q 113.958 1.651 113.36 1.086 Q 112.762 0.52 111.956 0.52 Q 111.163 0.52 110.559 1.086 A 3.161 3.161 0 0 0 109.991 1.807 Q 109.802 2.133 109.657 2.53 A 5.502 5.502 0 0 0 109.616 2.646 A 6.129 6.129 0 0 0 109.353 3.784 Q 109.278 4.328 109.278 4.94 A 8.374 8.374 0 0 0 109.352 6.082 A 6.139 6.139 0 0 0 109.616 7.222 A 4.673 4.673 0 0 0 109.935 7.958 Q 110.157 8.365 110.446 8.665 A 2.759 2.759 0 0 0 110.559 8.775 Q 111.163 9.334 111.956 9.334 Z M 119.756 9.334 Q 120.562 9.334 121.16 8.775 Q 121.713 8.258 122.043 7.37 A 5.513 5.513 0 0 0 122.096 7.222 A 6.139 6.139 0 0 0 122.36 6.082 A 8.374 8.374 0 0 0 122.434 4.94 A 8.495 8.495 0 0 0 122.36 3.79 Q 122.276 3.174 122.096 2.646 Q 121.758 1.651 121.16 1.086 Q 120.562 0.52 119.756 0.52 Q 118.963 0.52 118.359 1.086 A 3.161 3.161 0 0 0 117.791 1.807 Q 117.602 2.133 117.457 2.53 A 5.502 5.502 0 0 0 117.416 2.646 A 6.129 6.129 0 0 0 117.153 3.784 Q 117.078 4.328 117.078 4.94 A 8.374 8.374 0 0 0 117.152 6.082 A 6.139 6.139 0 0 0 117.416 7.222 A 4.673 4.673 0 0 0 117.735 7.958 Q 117.957 8.365 118.246 8.665 A 2.759 2.759 0 0 0 118.359 8.775 Q 118.963 9.334 119.756 9.334 Z M 48.386 9.542 L 46.241 9.542 L 46.241 2.652 L 46.631 2.652 L 46.631 5.317 L 48.386 5.317 Q 49.842 5.317 50.557 5.863 A 1.776 1.776 0 0 1 51.256 7.132 A 2.603 2.603 0 0 1 51.272 7.423 A 2.35 2.35 0 0 1 51.184 8.086 A 1.731 1.731 0 0 1 50.557 8.996 Q 49.856 9.531 48.442 9.542 A 7.648 7.648 0 0 1 48.386 9.542 Z M 80.756 9.698 Q 79.859 9.698 79.215 9.256 A 2.722 2.722 0 0 1 78.402 8.366 A 3.442 3.442 0 0 1 78.221 8.008 Q 77.87 7.202 77.87 6.097 A 5.845 5.845 0 0 1 77.937 5.187 Q 78.015 4.691 78.185 4.272 A 3.546 3.546 0 0 1 78.221 4.186 A 3.159 3.159 0 0 1 78.661 3.452 A 2.628 2.628 0 0 1 79.216 2.938 A 2.5 2.5 0 0 1 80.297 2.527 A 3.272 3.272 0 0 1 80.756 2.496 Q 81.653 2.496 82.303 2.938 A 2.687 2.687 0 0 1 83.145 3.874 A 3.375 3.375 0 0 1 83.297 4.186 A 4.093 4.093 0 0 1 83.561 5.097 Q 83.642 5.562 83.642 6.097 Q 83.642 7.202 83.298 8.008 A 3.067 3.067 0 0 1 82.853 8.752 A 2.595 2.595 0 0 1 82.303 9.256 A 2.544 2.544 0 0 1 81.189 9.67 A 3.3 3.3 0 0 1 80.756 9.698 Z M 69.446 9.542 L 76.284 9.542 L 76.284 9.152 L 69.446 9.152 L 69.446 11.492 L 69.836 11.492 L 69.836 9.152 L 69.446 9.152 L 69.446 9.542 Z M 80.756 9.308 A 2.483 2.483 0 0 0 81.584 9.176 A 2.093 2.093 0 0 0 82.57 8.444 Q 83.226 7.579 83.226 6.097 A 5.415 5.415 0 0 0 83.149 5.154 Q 83.056 4.632 82.853 4.214 A 2.763 2.763 0 0 0 82.57 3.751 A 2.104 2.104 0 0 0 81.037 2.9 A 2.864 2.864 0 0 0 80.756 2.886 A 2.483 2.483 0 0 0 79.928 3.018 A 2.093 2.093 0 0 0 78.942 3.751 Q 78.286 4.615 78.286 6.097 A 5.415 5.415 0 0 0 78.363 7.04 Q 78.456 7.562 78.659 7.98 A 2.763 2.763 0 0 0 78.942 8.444 A 2.104 2.104 0 0 0 80.475 9.294 A 2.864 2.864 0 0 0 80.756 9.308 Z M 110.136 8.45 L 109.772 8.372 L 113.776 1.404 L 114.14 1.482 L 110.136 8.45 Z M 117.936 8.45 L 117.572 8.372 L 121.576 1.404 L 121.94 1.482 L 117.936 8.45 Z M 39.689 9.542 L 39.299 9.542 L 39.299 2.652 L 39.689 2.652 L 39.689 9.542 Z M 52.871 9.542 L 52.481 9.542 L 52.481 2.652 L 52.871 2.652 L 52.871 9.542 Z M 44.213 9.542 L 43.823 9.542 L 43.823 2.652 L 44.213 2.652 L 44.213 9.542 Z M 46.631 5.707 L 46.631 9.126 L 48.386 9.126 Q 49.156 9.126 49.694 8.943 A 2.104 2.104 0 0 0 50.219 8.684 Q 50.856 8.242 50.856 7.423 A 1.724 1.724 0 0 0 50.768 6.859 A 1.409 1.409 0 0 0 50.219 6.149 Q 49.756 5.827 48.996 5.74 A 5.335 5.335 0 0 0 48.386 5.707 L 46.631 5.707 Z M 23.712 5.798 L 28.717 5.798 Q 28.685 4.711 28.251 3.982 A 2.638 2.638 0 0 0 28.041 3.679 A 2.074 2.074 0 0 0 26.658 2.914 A 3.047 3.047 0 0 0 26.234 2.886 Q 25.142 2.886 24.46 3.666 A 2.823 2.823 0 0 0 23.898 4.69 Q 23.771 5.093 23.728 5.572 A 5.406 5.406 0 0 0 23.712 5.798 Z M 137.072 6.89 L 137.072 5.811 L 134.498 6.318 A 4.584 4.584 0 0 0 133.933 6.47 Q 133.65 6.568 133.423 6.696 A 2.299 2.299 0 0 0 133.191 6.844 A 1.133 1.133 0 0 0 132.713 7.665 A 1.472 1.472 0 0 0 132.704 7.826 Q 132.704 8.541 133.172 8.925 A 1.546 1.546 0 0 0 133.696 9.2 Q 133.922 9.27 134.194 9.295 A 3.385 3.385 0 0 0 134.498 9.308 A 3.126 3.126 0 0 0 135.207 9.231 A 2.473 2.473 0 0 0 135.843 8.989 Q 136.422 8.671 136.747 8.125 A 2.325 2.325 0 0 0 137.067 7.06 A 2.814 2.814 0 0 0 137.072 6.89 Z M 107.016 9.542 L 101.296 9.542 L 101.296 9.178 L 107.016 9.178 L 107.016 9.542 Z M 146.016 9.542 L 140.296 9.542 L 140.296 9.178 L 146.016 9.178 L 146.016 9.542 Z M 44.083 6.305 L 39.442 6.305 L 39.442 5.915 L 44.083 5.915 L 44.083 6.305 Z M 32.344 0 L 32.682 0 A 1.722 1.722 0 0 0 32.772 0.367 Q 32.872 0.632 33.058 0.809 A 1.081 1.081 0 0 0 33.105 0.852 Q 33.449 1.144 33.956 1.144 A 1.452 1.452 0 0 0 34.38 1.084 A 1.187 1.187 0 0 0 34.808 0.852 Q 35.148 0.562 35.228 0.013 A 2.103 2.103 0 0 0 35.23 0 L 35.568 0 A 2.162 2.162 0 0 1 35.426 0.542 A 1.679 1.679 0 0 1 35.061 1.092 A 1.395 1.395 0 0 1 34.283 1.482 A 1.981 1.981 0 0 1 33.956 1.508 A 1.789 1.789 0 0 1 33.468 1.445 A 1.364 1.364 0 0 1 32.864 1.092 A 1.78 1.78 0 0 1 32.427 0.36 A 2.379 2.379 0 0 1 32.344 0 Z M 55.744 0 L 56.082 0 A 1.722 1.722 0 0 0 56.172 0.367 Q 56.272 0.632 56.458 0.809 A 1.081 1.081 0 0 0 56.505 0.852 Q 56.849 1.144 57.356 1.144 A 1.452 1.452 0 0 0 57.78 1.084 A 1.187 1.187 0 0 0 58.208 0.852 Q 58.548 0.562 58.628 0.013 A 2.103 2.103 0 0 0 58.63 0 L 58.968 0 A 2.162 2.162 0 0 1 58.826 0.542 A 1.679 1.679 0 0 1 58.461 1.092 A 1.395 1.395 0 0 1 57.683 1.482 A 1.981 1.981 0 0 1 57.356 1.508 A 1.789 1.789 0 0 1 56.868 1.445 A 1.364 1.364 0 0 1 56.264 1.092 A 1.78 1.78 0 0 1 55.827 0.36 A 2.379 2.379 0 0 1 55.744 0 Z M 76.453 11.492 L 76.063 11.492 L 76.076 9.152 L 76.466 9.152 L 76.453 11.492 Z"/></g></svg>