<svg width="177.32" height="11.388" viewBox="0 0 177.32 11.388" xmlns="http://www.w3.org/2000/svg"><g id="svgGroup" stroke-linecap="round" fill-rule="evenodd" font-size="9pt" stroke="#b2b2b2" stroke-width="0.45" fill="#b0b0b0" style="stroke:#b2b2b2;stroke-width:0.45;fill:#b0b0b0" class=""><path d="M 108.966 7.176 L 109.369 7.137 A 2.244 2.244 0 0 0 109.657 8.039 A 2.181 2.181 0 0 0 110.207 8.658 A 2.59 2.59 0 0 0 111.18 9.121 Q 111.554 9.215 111.993 9.228 A 4.827 4.827 0 0 0 112.138 9.23 Q 112.892 9.23 113.484 8.944 Q 114.075 8.658 114.42 8.125 Q 114.764 7.592 114.764 6.851 Q 114.764 6.188 114.42 5.701 A 2.181 2.181 0 0 0 113.723 5.072 A 2.731 2.731 0 0 0 113.464 4.94 A 3.093 3.093 0 0 0 112.64 4.707 A 4.058 4.058 0 0 0 112.06 4.667 L 111.189 4.667 L 111.189 4.277 L 112.06 4.277 A 3.814 3.814 0 0 0 112.66 4.232 Q 112.996 4.179 113.279 4.061 A 2.336 2.336 0 0 0 113.321 4.043 A 2.111 2.111 0 0 0 113.828 3.734 A 1.797 1.797 0 0 0 114.153 3.38 A 1.667 1.667 0 0 0 114.446 2.537 A 2.08 2.08 0 0 0 114.452 2.379 Q 114.452 1.482 113.822 0.949 A 2.2 2.2 0 0 0 112.834 0.479 A 3.137 3.137 0 0 0 112.19 0.416 A 3.228 3.228 0 0 0 111.445 0.498 A 2.378 2.378 0 0 0 110.598 0.878 Q 109.954 1.339 109.798 2.145 L 109.356 2.106 Q 109.538 1.144 110.279 0.572 A 2.649 2.649 0 0 1 111.31 0.094 Q 111.715 0 112.19 0 A 3.654 3.654 0 0 1 112.914 0.069 A 2.821 2.821 0 0 1 113.588 0.293 A 2.371 2.371 0 0 1 114.384 0.904 A 2.31 2.31 0 0 1 114.543 1.118 A 2.122 2.122 0 0 1 114.871 2.022 A 2.741 2.741 0 0 1 114.894 2.379 A 2.115 2.115 0 0 1 114.761 3.141 A 1.905 1.905 0 0 1 114.289 3.842 Q 113.685 4.42 112.606 4.55 L 112.606 4.342 Q 113.789 4.511 114.498 5.2 A 2.273 2.273 0 0 1 115.205 6.84 A 2.859 2.859 0 0 1 115.206 6.903 A 2.813 2.813 0 0 1 115.093 7.714 A 2.398 2.398 0 0 1 114.803 8.34 A 2.725 2.725 0 0 1 113.715 9.296 A 3.184 3.184 0 0 1 113.705 9.302 A 3.327 3.327 0 0 1 112.563 9.625 A 4.098 4.098 0 0 1 112.138 9.646 Q 110.924 9.646 110.123 9.116 A 2.73 2.73 0 0 1 109.915 8.964 Q 109.07 8.281 108.966 7.176 Z M 107.406 9.438 L 101.166 9.438 A 3.76 3.76 0 0 1 101.323 8.341 A 3.413 3.413 0 0 1 101.497 7.885 A 3.565 3.565 0 0 1 101.994 7.114 A 4.863 4.863 0 0 1 102.551 6.552 A 6.937 6.937 0 0 1 103.239 6.032 Q 103.601 5.791 104.034 5.556 A 13.414 13.414 0 0 1 104.442 5.343 A 15.162 15.162 0 0 0 105.025 5.037 Q 105.307 4.88 105.545 4.729 A 7.33 7.33 0 0 0 105.813 4.55 A 3.408 3.408 0 0 0 106.206 4.233 Q 106.411 4.039 106.551 3.829 A 1.978 1.978 0 0 0 106.613 3.731 A 1.847 1.847 0 0 0 106.836 3.113 A 2.477 2.477 0 0 0 106.873 2.678 A 2.56 2.56 0 0 0 106.772 1.948 A 2.259 2.259 0 0 0 106.6 1.528 Q 106.327 1.014 105.794 0.715 Q 105.292 0.434 104.572 0.417 A 3.958 3.958 0 0 0 104.481 0.416 Q 103.298 0.416 102.564 1.079 Q 101.829 1.742 101.634 3.029 L 101.192 2.99 A 4.244 4.244 0 0 1 101.452 1.962 A 3.131 3.131 0 0 1 102.245 0.8 A 2.998 2.998 0 0 1 103.868 0.044 A 4.128 4.128 0 0 1 104.481 0 A 3.739 3.739 0 0 1 105.207 0.067 A 2.736 2.736 0 0 1 106.002 0.351 Q 106.639 0.702 106.977 1.3 A 2.629 2.629 0 0 1 107.306 2.409 A 3.203 3.203 0 0 1 107.315 2.652 A 2.935 2.935 0 0 1 107.255 3.26 A 2.198 2.198 0 0 1 107.023 3.887 A 2.682 2.682 0 0 1 106.601 4.443 A 3.644 3.644 0 0 1 106.145 4.836 Q 105.655 5.195 104.956 5.555 A 13.828 13.828 0 0 1 104.676 5.694 A 9.934 9.934 0 0 0 103.865 6.129 Q 103.475 6.363 103.156 6.612 A 5.712 5.712 0 0 0 103.012 6.728 A 5.381 5.381 0 0 0 102.496 7.215 Q 102.202 7.535 102.011 7.865 A 2.951 2.951 0 0 0 101.727 8.523 A 2.469 2.469 0 0 0 101.634 9.048 L 107.406 9.048 L 107.406 9.438 Z M 31.746 9.438 L 31.33 9.438 L 31.33 0.208 L 36.842 0.208 L 36.842 9.438 L 36.426 9.438 L 36.426 0.598 L 31.746 0.598 L 31.746 9.438 Z M 63.388 9.438 L 62.855 9.438 L 62.855 2.548 L 63.245 2.548 L 63.245 8.957 L 67.145 2.548 L 67.717 2.548 L 67.717 9.438 L 67.327 9.438 L 67.327 2.977 L 63.388 9.438 Z M 148.603 7.488 L 149.019 7.462 A 2.164 2.164 0 0 0 149.155 8.074 A 1.723 1.723 0 0 0 149.604 8.73 Q 150.124 9.204 150.995 9.204 Q 151.944 9.204 152.516 8.756 A 1.429 1.429 0 0 0 153.081 7.714 A 1.864 1.864 0 0 0 153.088 7.553 A 1.79 1.79 0 0 0 153.011 7.016 A 1.406 1.406 0 0 0 152.542 6.331 A 1.783 1.783 0 0 0 151.863 5.996 Q 151.547 5.914 151.163 5.914 A 3.702 3.702 0 0 0 151.06 5.915 L 150.345 5.941 L 150.345 5.525 L 151.06 5.551 A 3.748 3.748 0 0 0 151.177 5.553 Q 151.742 5.553 152.135 5.375 A 1.47 1.47 0 0 0 152.373 5.239 Q 152.854 4.901 152.854 4.29 A 1.51 1.51 0 0 0 152.767 3.767 A 1.313 1.313 0 0 0 152.347 3.192 A 1.789 1.789 0 0 0 151.602 2.841 A 2.596 2.596 0 0 0 151.034 2.782 A 2.342 2.342 0 0 0 150.509 2.838 A 1.621 1.621 0 0 0 149.812 3.179 A 1.538 1.538 0 0 0 149.297 4.061 A 2.055 2.055 0 0 0 149.266 4.251 L 148.85 4.212 A 2.34 2.34 0 0 1 149.021 3.563 A 1.858 1.858 0 0 1 149.526 2.88 A 1.973 1.973 0 0 1 150.371 2.463 Q 150.666 2.394 151.012 2.392 A 3.557 3.557 0 0 1 151.034 2.392 Q 151.996 2.392 152.604 2.866 A 2.011 2.011 0 0 1 152.652 2.906 A 1.674 1.674 0 0 1 153.265 4.13 A 2.323 2.323 0 0 1 153.27 4.29 A 1.265 1.265 0 0 1 152.871 5.233 A 1.607 1.607 0 0 1 152.809 5.291 A 1.93 1.93 0 0 1 152.312 5.6 Q 152.078 5.703 151.793 5.769 A 4.006 4.006 0 0 1 151.502 5.824 L 151.515 5.655 A 3.537 3.537 0 0 1 152.123 5.789 Q 152.463 5.898 152.723 6.074 A 1.862 1.862 0 0 1 152.99 6.292 A 1.705 1.705 0 0 1 153.503 7.507 A 2.247 2.247 0 0 1 153.504 7.566 A 2.064 2.064 0 0 1 153.394 8.256 A 1.744 1.744 0 0 1 152.821 9.048 A 2.364 2.364 0 0 1 151.939 9.481 Q 151.514 9.594 150.995 9.594 A 2.945 2.945 0 0 1 150.317 9.519 A 2.432 2.432 0 0 1 149.786 9.328 Q 149.253 9.061 148.948 8.58 A 2.243 2.243 0 0 1 148.613 7.601 A 2.665 2.665 0 0 1 148.603 7.488 Z M 7.982 9.438 L 7.514 9.438 L 7.514 9.048 L 7.982 9.048 A 0.69 0.69 0 0 0 8.43 8.881 Q 8.523 8.804 8.608 8.693 A 1.42 1.42 0 0 0 8.619 8.678 A 1.59 1.59 0 0 0 8.856 8.197 Q 8.921 7.985 8.944 7.735 L 9.425 2.548 L 13.481 2.548 L 13.481 9.438 L 13.091 9.438 L 13.091 2.938 L 9.776 2.938 L 9.347 7.592 A 3.725 3.725 0 0 1 9.254 8.155 Q 9.18 8.451 9.057 8.689 A 1.896 1.896 0 0 1 8.905 8.938 Q 8.541 9.438 7.982 9.438 Z M 1.365 11.388 L 0.845 11.388 L 0.845 11.024 L 1.365 11.024 Q 1.924 11.024 2.184 10.829 A 0.91 0.91 0 0 0 2.355 10.657 Q 2.511 10.455 2.639 10.114 L 2.938 9.308 L 2.73 9.308 L 0 2.548 L 0.416 2.548 L 3.016 9.048 L 5.434 2.548 L 5.85 2.548 L 2.951 10.27 Q 2.799 10.668 2.602 10.914 A 1.238 1.238 0 0 1 2.379 11.135 A 1.086 1.086 0 0 1 2.065 11.293 Q 1.915 11.343 1.73 11.367 A 2.887 2.887 0 0 1 1.365 11.388 Z M 40.365 11.388 L 39.845 11.388 L 39.845 11.024 L 40.365 11.024 Q 40.924 11.024 41.184 10.829 A 0.91 0.91 0 0 0 41.355 10.657 Q 41.511 10.455 41.639 10.114 L 41.938 9.308 L 41.73 9.308 L 39 2.548 L 39.416 2.548 L 42.016 9.048 L 44.434 2.548 L 44.85 2.548 L 41.951 10.27 Q 41.799 10.668 41.602 10.914 A 1.238 1.238 0 0 1 41.379 11.135 A 1.086 1.086 0 0 1 41.065 11.293 Q 40.915 11.343 40.73 11.367 A 2.887 2.887 0 0 1 40.365 11.388 Z M 79.911 5.85 L 82.602 5.33 A 5.706 5.706 0 0 0 82.564 4.647 Q 82.477 3.923 82.187 3.5 A 1.477 1.477 0 0 0 82.095 3.38 A 1.614 1.614 0 0 0 81.27 2.868 Q 80.958 2.782 80.574 2.782 Q 79.638 2.782 79.073 3.263 A 1.972 1.972 0 0 0 78.503 4.091 A 2.804 2.804 0 0 0 78.364 4.628 L 77.935 4.589 A 3.286 3.286 0 0 1 78.153 3.84 A 2.353 2.353 0 0 1 78.793 2.964 A 2.334 2.334 0 0 1 79.776 2.479 Q 80.119 2.398 80.52 2.392 A 4.206 4.206 0 0 1 80.574 2.392 A 3.109 3.109 0 0 1 81.305 2.473 A 2.045 2.045 0 0 1 82.362 3.081 A 2.12 2.12 0 0 1 82.787 3.81 Q 82.902 4.133 82.953 4.533 A 5.335 5.335 0 0 1 82.992 5.2 L 82.992 8.112 A 3.325 3.325 0 0 0 82.999 8.344 Q 83.026 8.724 83.148 8.866 Q 83.293 9.035 83.571 9.047 A 1.013 1.013 0 0 0 83.616 9.048 L 84.006 9.048 L 84.006 9.438 Q 83.958 9.45 83.831 9.457 A 3.6 3.6 0 0 1 83.811 9.458 Q 83.713 9.462 83.633 9.463 A 3.945 3.945 0 0 1 83.564 9.464 A 1.25 1.25 0 0 1 83.309 9.439 A 0.91 0.91 0 0 1 83.031 9.334 A 0.631 0.631 0 0 1 82.844 9.161 Q 82.754 9.04 82.693 8.86 Q 82.576 8.515 82.576 7.852 L 82.68 7.852 A 2.297 2.297 0 0 1 82.355 8.466 A 2.856 2.856 0 0 1 82.153 8.71 A 2.682 2.682 0 0 1 81.376 9.291 A 3.126 3.126 0 0 1 81.243 9.354 A 2.77 2.77 0 0 1 80.437 9.571 A 3.471 3.471 0 0 1 80.028 9.594 A 3.276 3.276 0 0 1 79.442 9.544 A 2.448 2.448 0 0 1 78.865 9.367 A 1.93 1.93 0 0 1 78.385 9.061 A 1.664 1.664 0 0 1 78.091 8.723 A 1.664 1.664 0 0 1 77.831 7.986 A 2.113 2.113 0 0 1 77.818 7.748 A 1.66 1.66 0 0 1 77.935 7.114 A 1.536 1.536 0 0 1 78.41 6.494 Q 79.001 6.019 79.911 5.85 Z M 142.311 5.85 L 145.002 5.33 A 5.706 5.706 0 0 0 144.964 4.647 Q 144.877 3.923 144.587 3.5 A 1.477 1.477 0 0 0 144.495 3.38 A 1.614 1.614 0 0 0 143.67 2.868 Q 143.358 2.782 142.974 2.782 Q 142.038 2.782 141.473 3.263 A 1.972 1.972 0 0 0 140.903 4.091 A 2.804 2.804 0 0 0 140.764 4.628 L 140.335 4.589 A 3.286 3.286 0 0 1 140.553 3.84 A 2.353 2.353 0 0 1 141.193 2.964 A 2.334 2.334 0 0 1 142.176 2.479 Q 142.519 2.398 142.92 2.392 A 4.206 4.206 0 0 1 142.974 2.392 A 3.109 3.109 0 0 1 143.705 2.473 A 2.045 2.045 0 0 1 144.762 3.081 A 2.12 2.12 0 0 1 145.187 3.81 Q 145.302 4.133 145.353 4.533 A 5.335 5.335 0 0 1 145.392 5.2 L 145.392 8.112 A 3.325 3.325 0 0 0 145.399 8.344 Q 145.426 8.724 145.548 8.866 Q 145.693 9.035 145.971 9.047 A 1.013 1.013 0 0 0 146.016 9.048 L 146.406 9.048 L 146.406 9.438 Q 146.358 9.45 146.231 9.457 A 3.6 3.6 0 0 1 146.211 9.458 Q 146.113 9.462 146.033 9.463 A 3.945 3.945 0 0 1 145.964 9.464 A 1.25 1.25 0 0 1 145.709 9.439 A 0.91 0.91 0 0 1 145.431 9.334 A 0.631 0.631 0 0 1 145.244 9.161 Q 145.154 9.04 145.093 8.86 Q 144.976 8.515 144.976 7.852 L 145.08 7.852 A 2.297 2.297 0 0 1 144.755 8.466 A 2.856 2.856 0 0 1 144.553 8.71 A 2.682 2.682 0 0 1 143.776 9.291 A 3.126 3.126 0 0 1 143.643 9.354 A 2.77 2.77 0 0 1 142.837 9.571 A 3.471 3.471 0 0 1 142.428 9.594 A 3.276 3.276 0 0 1 141.842 9.544 A 2.448 2.448 0 0 1 141.265 9.367 A 1.93 1.93 0 0 1 140.785 9.061 A 1.664 1.664 0 0 1 140.491 8.723 A 1.664 1.664 0 0 1 140.231 7.986 A 2.113 2.113 0 0 1 140.218 7.748 A 1.66 1.66 0 0 1 140.335 7.114 A 1.536 1.536 0 0 1 140.81 6.494 Q 141.401 6.019 142.311 5.85 Z M 157.911 5.85 L 160.602 5.33 A 5.706 5.706 0 0 0 160.564 4.647 Q 160.477 3.923 160.187 3.5 A 1.477 1.477 0 0 0 160.095 3.38 A 1.614 1.614 0 0 0 159.27 2.868 Q 158.958 2.782 158.574 2.782 Q 157.638 2.782 157.073 3.263 A 1.972 1.972 0 0 0 156.503 4.091 A 2.804 2.804 0 0 0 156.364 4.628 L 155.935 4.589 A 3.286 3.286 0 0 1 156.153 3.84 A 2.353 2.353 0 0 1 156.793 2.964 A 2.334 2.334 0 0 1 157.776 2.479 Q 158.119 2.398 158.52 2.392 A 4.206 4.206 0 0 1 158.574 2.392 A 3.109 3.109 0 0 1 159.305 2.473 A 2.045 2.045 0 0 1 160.362 3.081 A 2.12 2.12 0 0 1 160.787 3.81 Q 160.902 4.133 160.953 4.533 A 5.335 5.335 0 0 1 160.992 5.2 L 160.992 8.112 A 3.325 3.325 0 0 0 160.999 8.344 Q 161.026 8.724 161.148 8.866 Q 161.293 9.035 161.571 9.047 A 1.013 1.013 0 0 0 161.616 9.048 L 162.006 9.048 L 162.006 9.438 Q 161.958 9.45 161.831 9.457 A 3.6 3.6 0 0 1 161.811 9.458 Q 161.713 9.462 161.633 9.463 A 3.945 3.945 0 0 1 161.564 9.464 A 1.25 1.25 0 0 1 161.309 9.439 A 0.91 0.91 0 0 1 161.031 9.334 A 0.631 0.631 0 0 1 160.844 9.161 Q 160.754 9.04 160.693 8.86 Q 160.576 8.515 160.576 7.852 L 160.68 7.852 A 2.297 2.297 0 0 1 160.355 8.466 A 2.856 2.856 0 0 1 160.153 8.71 A 2.682 2.682 0 0 1 159.376 9.291 A 3.126 3.126 0 0 1 159.243 9.354 A 2.77 2.77 0 0 1 158.437 9.571 A 3.471 3.471 0 0 1 158.028 9.594 A 3.276 3.276 0 0 1 157.442 9.544 A 2.448 2.448 0 0 1 156.865 9.367 A 1.93 1.93 0 0 1 156.385 9.061 A 1.664 1.664 0 0 1 156.091 8.723 A 1.664 1.664 0 0 1 155.831 7.986 A 2.113 2.113 0 0 1 155.818 7.748 A 1.66 1.66 0 0 1 155.935 7.114 A 1.536 1.536 0 0 1 156.41 6.494 Q 157.001 6.019 157.911 5.85 Z M 174.304 9.438 L 171.899 9.438 L 171.899 2.548 L 172.289 2.548 L 172.289 5.213 L 174.304 5.213 A 6.235 6.235 0 0 1 175.146 5.266 Q 176.003 5.383 176.54 5.759 A 1.745 1.745 0 0 1 177.303 7.028 A 2.389 2.389 0 0 1 177.32 7.319 A 2.149 2.149 0 0 1 177.215 8.008 A 1.738 1.738 0 0 1 176.54 8.892 Q 175.963 9.296 175.015 9.401 A 6.468 6.468 0 0 1 174.304 9.438 Z M 133.055 9.438 L 132.639 9.438 L 132.639 0.208 L 133.055 0.208 L 133.055 9.438 Z M 138.762 9.438 L 138.216 9.438 L 132.964 4.823 L 133.51 4.823 L 138.762 9.438 Z M 49.881 9.438 L 49.491 9.438 L 49.491 2.548 L 49.881 2.548 L 49.881 9.438 Z M 55.471 9.438 L 55.081 9.438 L 55.081 2.548 L 55.471 2.548 L 55.471 9.438 Z M 71.019 9.438 L 70.629 9.438 L 70.629 2.548 L 71.019 2.548 L 71.019 9.438 Z M 164.619 9.438 L 164.229 9.438 L 164.229 2.548 L 164.619 2.548 L 164.619 9.438 Z M 47.177 9.438 L 46.787 9.438 L 46.787 2.548 L 47.177 2.548 L 47.177 9.438 Z M 52.585 9.438 L 52.195 9.438 L 52.195 2.548 L 52.585 2.548 L 52.585 9.438 Z M 75.543 9.438 L 75.153 9.438 L 75.153 2.548 L 75.543 2.548 L 75.543 9.438 Z M 169.143 9.438 L 168.753 9.438 L 168.753 2.548 L 169.143 2.548 L 169.143 9.438 Z M 132.964 4.823 L 133.51 4.823 L 138.385 0.208 L 137.852 0.208 L 132.964 4.823 Z M 172.289 5.603 L 172.289 9.022 L 174.304 9.022 A 5.668 5.668 0 0 0 175.028 8.979 Q 175.39 8.932 175.686 8.835 A 2.292 2.292 0 0 0 176.228 8.58 A 1.515 1.515 0 0 0 176.678 8.14 Q 176.876 7.836 176.9 7.435 A 1.89 1.89 0 0 0 176.904 7.319 A 1.624 1.624 0 0 0 176.805 6.739 Q 176.655 6.344 176.279 6.08 A 1.827 1.827 0 0 0 176.228 6.045 A 2.35 2.35 0 0 0 175.613 5.767 Q 175.065 5.603 174.304 5.603 L 172.289 5.603 Z M 82.602 6.786 L 82.602 5.707 L 80.028 6.214 A 4.584 4.584 0 0 0 79.463 6.366 Q 79.18 6.464 78.953 6.592 A 2.299 2.299 0 0 0 78.721 6.741 A 1.133 1.133 0 0 0 78.243 7.561 A 1.472 1.472 0 0 0 78.234 7.722 Q 78.234 8.437 78.702 8.821 A 1.546 1.546 0 0 0 79.226 9.096 Q 79.452 9.166 79.724 9.191 A 3.385 3.385 0 0 0 80.028 9.204 A 3.126 3.126 0 0 0 80.737 9.127 A 2.473 2.473 0 0 0 81.373 8.886 Q 81.952 8.567 82.277 8.021 A 2.325 2.325 0 0 0 82.597 6.956 A 2.814 2.814 0 0 0 82.602 6.786 Z M 145.002 6.786 L 145.002 5.707 L 142.428 6.214 A 4.584 4.584 0 0 0 141.863 6.366 Q 141.58 6.464 141.353 6.592 A 2.299 2.299 0 0 0 141.121 6.741 A 1.133 1.133 0 0 0 140.643 7.561 A 1.472 1.472 0 0 0 140.634 7.722 Q 140.634 8.437 141.102 8.821 A 1.546 1.546 0 0 0 141.626 9.096 Q 141.852 9.166 142.124 9.191 A 3.385 3.385 0 0 0 142.428 9.204 A 3.126 3.126 0 0 0 143.137 9.127 A 2.473 2.473 0 0 0 143.773 8.886 Q 144.352 8.567 144.677 8.021 A 2.325 2.325 0 0 0 144.997 6.956 A 2.814 2.814 0 0 0 145.002 6.786 Z M 160.602 6.786 L 160.602 5.707 L 158.028 6.214 A 4.584 4.584 0 0 0 157.463 6.366 Q 157.18 6.464 156.953 6.592 A 2.299 2.299 0 0 0 156.721 6.741 A 1.133 1.133 0 0 0 156.243 7.561 A 1.472 1.472 0 0 0 156.234 7.722 Q 156.234 8.437 156.702 8.821 A 1.546 1.546 0 0 0 157.226 9.096 Q 157.452 9.166 157.724 9.191 A 3.385 3.385 0 0 0 158.028 9.204 A 3.126 3.126 0 0 0 158.737 9.127 A 2.473 2.473 0 0 0 159.373 8.886 Q 159.952 8.567 160.277 8.021 A 2.325 2.325 0 0 0 160.597 6.956 A 2.814 2.814 0 0 0 160.602 6.786 Z M 46.787 9.438 L 52.585 9.438 L 52.585 9.048 L 46.787 9.048 L 46.787 9.438 Z M 60.307 9.438 L 59.67 9.438 L 55.432 5.993 L 56.017 5.993 L 60.307 9.438 Z M 55.432 5.993 L 56.017 5.993 L 60.164 2.548 L 59.54 2.548 L 55.432 5.993 Z M 75.413 6.201 L 70.772 6.201 L 70.772 5.811 L 75.413 5.811 L 75.413 6.201 Z M 169.013 6.201 L 164.372 6.201 L 164.372 5.811 L 169.013 5.811 L 169.013 6.201 Z M 88.569 11.063 L 88.244 11.063 L 88.764 9.438 L 88.166 9.438 L 88.166 8.398 L 89.206 8.398 L 89.206 9.334 L 88.569 11.063 Z M 119.769 11.063 L 119.444 11.063 L 119.964 9.438 L 119.366 9.438 L 119.366 8.398 L 120.406 8.398 L 120.406 9.334 L 119.769 11.063 Z M 19.006 9.438 L 17.966 9.438 L 17.966 8.398 L 19.006 8.398 L 19.006 9.438 Z"/></g></svg>